<svg xmlns="http://www.w3.org/2000/svg" xmlns:xlink="http://www.w3.org/1999/xlink" width="500" zoomAndPan="magnify" viewBox="0 0 375 374.999991" height="500" preserveAspectRatio="xMidYMid meet" version="1.0"><defs><clipPath id="cef2000081"><path d="M 135.46875 112.5 L 234 112.5 L 234 262.5 L 135.46875 262.5 Z M 135.46875 112.5 " clip-rule="nonzero"/></clipPath><clipPath id="e0aeaee0e5"><path d="M 239.53125 166 L 289 166 L 289 209.972656 L 239.53125 209.972656 Z M 239.53125 166 " clip-rule="nonzero"/></clipPath><clipPath id="44c87a24d1"><path d="M 288 143.972656 L 337.78125 143.972656 L 337.78125 188 L 288 188 Z M 288 143.972656 " clip-rule="nonzero"/></clipPath></defs><path fill="#000000" d="M 172.371094 176.121094 C 172.28125 175.8125 172.203125 175.480469 172.171875 175.40625 C 171.742188 174.273438 171.132812 173.195312 170.402344 172.222656 C 168.414062 169.570312 165.820312 167.832031 162.777344 166.570312 C 161.863281 166.1875 160.929688 165.84375 160.007812 165.484375 C 159.894531 165.441406 159.277344 165.113281 159.160156 165.214844 C 159.074219 165.292969 159.710938 166.039062 159.757812 166.097656 C 160.511719 167.074219 161.246094 168.074219 161.925781 169.097656 C 163.820312 171.953125 165.859375 174.820312 168.769531 176.734375 C 169.757812 177.382812 171.195312 178.148438 172.460938 177.828125 C 177.320312 181.710938 183.195312 183.738281 188.679688 186.574219 C 188.125 186.398438 187.5625 186.238281 187 186.09375 C 182.019531 184.820312 177.074219 185.066406 172.21875 186.683594 C 171.167969 187.035156 170.132812 187.410156 169.101562 187.816406 C 168.984375 187.863281 168.1875 188.082031 168.199219 188.246094 C 168.214844 188.480469 169.355469 188.796875 169.53125 188.867188 C 171.042969 189.457031 172.574219 189.996094 174.085938 190.582031 C 178.941406 192.460938 184.164062 192.347656 189.160156 191.171875 C 190.414062 190.875 192.601562 190.523438 193.6875 189.570312 C 198.238281 192.753906 201.917969 196.820312 204.910156 201.460938 C 204.367188 200.957031 203.808594 200.464844 203.242188 199.980469 C 200.863281 197.949219 197.636719 195.382812 194.339844 194.863281 C 194.339844 194.644531 194.300781 194.417969 194.21875 194.195312 C 193.851562 193.207031 192.75 192.703125 191.761719 193.070312 C 190.773438 193.4375 190.269531 194.539062 190.636719 195.527344 C 191.003906 196.511719 192.105469 197.015625 193.09375 196.648438 C 193.425781 196.527344 193.699219 196.324219 193.90625 196.070312 C 197.066406 196.4375 200.144531 198.988281 202.425781 200.933594 C 202.734375 201.195312 203.039062 201.460938 203.339844 201.726562 C 200.035156 199.546875 196.261719 197.886719 192.3125 197.449219 C 191.773438 197.386719 188.636719 196.851562 188.257812 197.550781 C 188.160156 197.730469 189.066406 198.292969 189.183594 198.386719 C 190.265625 199.242188 191.257812 200.21875 192.226562 201.195312 C 195.582031 204.578125 199.246094 206.632812 204.039062 207.367188 C 205.425781 207.582031 206.886719 207.175781 208.242188 207.347656 C 209.496094 209.792969 210.691406 212.265625 211.933594 214.714844 C 211.585938 214.527344 211.238281 214.347656 210.886719 214.164062 C 208.78125 213.082031 206.582031 212.28125 204.238281 211.921875 C 204.179688 211.910156 204.125 211.910156 204.070312 211.917969 C 204.054688 211.855469 204.035156 211.796875 204.015625 211.734375 C 203.644531 210.75 202.542969 210.246094 201.554688 210.613281 C 200.566406 210.980469 200.0625 212.078125 200.429688 213.066406 C 200.796875 214.054688 201.898438 214.554688 202.886719 214.1875 C 203.402344 214 203.785156 213.613281 203.980469 213.144531 C 204.003906 213.152344 204.023438 213.15625 204.046875 213.160156 C 206.253906 213.5 208.328125 214.257812 210.3125 215.277344 C 211.003906 215.636719 211.691406 216 212.371094 216.378906 C 212.46875 216.4375 212.578125 216.574219 212.6875 216.6875 C 212.839844 216.839844 212.992188 216.972656 213.125 217.042969 L 213.144531 217.054688 C 214.367188 219.375 215.667969 221.65625 217.132812 223.855469 C 218.050781 225.234375 219.058594 226.550781 220.066406 227.863281 C 220.246094 228.097656 220.546875 228.636719 220.871094 228.96875 C 221.105469 229.210938 221.367188 229.363281 221.609375 229.410156 C 221.949219 229.476562 222.277344 229.25 222.34375 228.910156 C 222.40625 228.582031 222.199219 228.265625 221.875 228.1875 C 221.847656 228.160156 221.664062 227.980469 221.574219 227.855469 C 221.367188 227.574219 221.1875 227.265625 221.0625 227.101562 C 220.074219 225.808594 219.082031 224.515625 218.179688 223.164062 C 216.886719 221.222656 215.722656 219.214844 214.628906 217.175781 C 214.675781 216.726562 214.753906 216.25 214.757812 216.210938 C 215.113281 214.226562 215.867188 212.253906 216.691406 210.425781 C 218.632812 206.128906 219.101562 202.179688 216.972656 197.835938 C 216.644531 197.175781 215.578125 194.613281 214.695312 194.421875 C 214.632812 194.410156 214.496094 195.566406 214.480469 195.644531 C 214.230469 197.050781 214.003906 198.457031 213.808594 199.871094 C 213.363281 203.109375 213.070312 206.324219 212.816406 209.578125 C 212.714844 210.886719 212.578125 212.105469 212.632812 213.316406 C 211.191406 210.449219 209.796875 207.554688 208.28125 204.722656 C 206.625 201.628906 204.726562 198.726562 202.535156 196.085938 C 202.742188 195.773438 203.164062 195.292969 203.277344 195.070312 C 203.820312 194.023438 204.226562 192.910156 204.53125 191.769531 C 205.832031 186.929688 204.957031 181.714844 202.757812 177.273438 C 202.042969 175.824219 201.253906 174.398438 200.332031 173.074219 C 200.203125 172.890625 199.660156 171.960938 199.328125 172.070312 C 199.164062 172.125 199.441406 173.339844 199.457031 173.472656 C 199.621094 174.949219 199.503906 176.417969 199.480469 177.894531 C 199.40625 182.539062 199.429688 187.359375 200.421875 191.945312 C 199.984375 191.226562 199.550781 190.503906 199.136719 189.769531 C 197.253906 186.429688 195.574219 183.121094 194.988281 179.308594 C 194.984375 179.296875 194.984375 179.285156 194.980469 179.273438 C 195.820312 178.832031 196.222656 177.828125 195.882812 176.917969 C 195.515625 175.929688 194.414062 175.425781 193.425781 175.792969 C 192.4375 176.160156 191.933594 177.261719 192.300781 178.25 C 192.542969 178.898438 193.101562 179.339844 193.742188 179.460938 C 193.742188 179.472656 193.742188 179.484375 193.746094 179.5 C 194.359375 183.464844 196.085938 186.914062 198.046875 190.386719 C 198.480469 191.160156 198.9375 191.921875 199.398438 192.679688 C 197.242188 190.582031 194.851562 188.707031 192.199219 187.101562 C 190.121094 185.84375 187.941406 184.789062 185.75 183.769531 C 185.648438 183.640625 185.378906 183.359375 185.300781 183.207031 C 185.054688 182.71875 184.832031 182.207031 184.648438 181.691406 C 184.128906 180.214844 183.824219 178.671875 183.53125 177.136719 C 182.582031 172.109375 181.316406 167.929688 177.894531 163.945312 C 177.121094 163.046875 176.300781 162.171875 175.382812 161.421875 C 175.269531 161.328125 174.609375 160.695312 174.433594 160.761719 C 174.355469 160.789062 174.726562 162.183594 174.742188 162.277344 C 175.054688 163.90625 175.261719 165.558594 175.488281 167.199219 C 176.011719 170.984375 177.738281 174.082031 179.636719 177.339844 C 180.171875 178.261719 180.660156 179.125 181.160156 179.9375 C 180.421875 179.304688 179.707031 178.652344 179.023438 177.964844 C 176.195312 175.109375 173.679688 171.992188 171.851562 168.410156 C 172.367188 167.898438 172.566406 167.113281 172.296875 166.390625 C 171.929688 165.402344 170.828125 164.898438 169.839844 165.265625 C 168.851562 165.632812 168.347656 166.734375 168.714844 167.71875 C 169.027344 168.558594 169.867188 169.046875 170.722656 168.953125 C 172.609375 172.660156 175.203125 175.894531 178.132812 178.847656 C 179.136719 179.859375 180.210938 180.796875 181.3125 181.703125 C 178.144531 180.171875 175.074219 178.484375 172.371094 176.121094 Z M 172.371094 176.121094 " fill-opacity="1" fill-rule="evenodd"/><g clip-path="url(#cef2000081)"><path fill="#000000" d="M 229.210938 206.417969 L 210.894531 224.703125 C 211.226562 226.535156 211.390625 228.492188 211.390625 230.574219 C 211.390625 237.964844 208.703125 243.90625 203.332031 248.398438 C 197.960938 252.898438 191.570312 255.140625 184.164062 255.140625 C 182.859375 255.140625 181.117188 254.921875 178.9375 254.492188 C 176.613281 254.050781 174.652344 253.621094 173.058594 253.183594 C 158.972656 248.398438 148.007812 236.078125 140.167969 216.222656 L 135.59375 216.222656 L 141.910156 262.53125 L 146.703125 262.53125 C 146.703125 257.609375 148.808594 255.140625 153.019531 255.140625 L 159.769531 256.445312 L 167.175781 258.839844 L 178.066406 261.664062 C 180.246094 262.242188 183.222656 262.53125 186.996094 262.53125 C 195.417969 262.53125 202.894531 260.9375 209.429688 257.75 C 216.398438 254.558594 222.136719 250 226.636719 244.050781 C 231.136719 238.109375 233.390625 231.222656 233.390625 223.394531 C 233.390625 217.460938 231.996094 211.800781 229.210938 206.417969 Z M 149.769531 172.863281 L 166.328125 156.328125 C 165.476562 155.265625 164.667969 154.144531 163.910156 152.957031 C 161.441406 149.1875 160.207031 145.203125 160.207031 141 C 160.207031 136.214844 162.3125 131.722656 166.523438 127.519531 C 170.152344 123.460938 175.453125 121.433594 182.421875 121.433594 C 188.8125 121.433594 194.984375 123.097656 200.9375 126.433594 C 206.742188 130.199219 211.464844 134.839844 215.09375 140.347656 C 218.578125 145.855469 221.117188 152.015625 222.714844 158.828125 L 228.378906 158.828125 L 223.585938 112.519531 L 219.011719 112.519531 C 218.433594 116.867188 216.035156 119.257812 211.824219 119.691406 C 207.46875 119.113281 204.203125 118.316406 202.023438 117.300781 C 194.183594 114.113281 187.214844 112.519531 181.117188 112.519531 C 172.984375 112.519531 166.015625 114.113281 160.207031 117.300781 C 153.960938 120.636719 149.242188 125.199219 146.050781 131 C 142.710938 136.941406 141.039062 143.101562 141.039062 149.476562 C 141.621094 157.160156 143.507812 163.539062 146.703125 168.613281 C 147.488281 169.984375 148.511719 171.398438 149.769531 172.863281 Z M 149.769531 172.863281 " fill-opacity="1" fill-rule="nonzero"/></g><g clip-path="url(#e0aeaee0e5)"><path fill="#d64700" d="M 272.519531 197.234375 L 272.519531 203.199219 L 245.515625 190.652344 L 245.515625 185.8125 L 272.519531 173.265625 L 272.519531 179.230469 L 252.097656 188.175781 L 252.097656 188.289062 Z M 288.558594 166.640625 L 243.394531 166.640625 C 241.265625 166.640625 239.535156 168.367188 239.535156 170.5 L 239.535156 205.964844 C 239.535156 208.097656 241.265625 209.824219 243.394531 209.824219 L 276.019531 209.824219 L 288.558594 166.640625 " fill-opacity="1" fill-rule="nonzero"/></g><g clip-path="url(#44c87a24d1)"><path fill="#222222" d="M 331.527344 168.175781 L 304.523438 180.550781 L 304.523438 174.585938 L 325.394531 165.644531 L 325.394531 165.53125 L 304.523438 156.582031 L 304.523438 150.621094 L 331.527344 163 Z M 301.09375 143.996094 L 288.558594 187.179688 L 333.644531 187.179688 C 335.777344 187.179688 337.507812 185.449219 337.507812 183.316406 L 337.507812 147.855469 C 337.507812 145.722656 335.777344 143.996094 333.644531 143.996094 L 301.09375 143.996094 " fill-opacity="1" fill-rule="nonzero"/></g></svg>