<svg xmlns="http://www.w3.org/2000/svg" xmlns:xlink="http://www.w3.org/1999/xlink" width="500" zoomAndPan="magnify" viewBox="0 0 375 374.999991" height="500" preserveAspectRatio="xMidYMid meet" version="1.0"><defs><clipPath id="925c6ffde2"><path d="M 135.46875 112.5 L 234 112.5 L 234 262.5 L 135.46875 262.5 Z M 135.46875 112.5 " clip-rule="nonzero"/></clipPath><clipPath id="963d395e49"><path d="M 239.53125 163 L 289 163 L 289 207.308594 L 239.53125 207.308594 Z M 239.53125 163 " clip-rule="nonzero"/></clipPath><clipPath id="694f406349"><path d="M 288 141.308594 L 337.78125 141.308594 L 337.78125 185 L 288 185 Z M 288 141.308594 " clip-rule="nonzero"/></clipPath></defs><path fill="#f4ead2" d="M 172.304688 176.121094 C 172.214844 175.8125 172.136719 175.480469 172.109375 175.40625 C 171.675781 174.273438 171.066406 173.195312 170.339844 172.222656 C 168.355469 169.570312 165.765625 167.832031 162.730469 166.570312 C 161.816406 166.1875 160.886719 165.84375 159.960938 165.484375 C 159.851562 165.441406 159.234375 165.113281 159.117188 165.214844 C 159.035156 165.292969 159.667969 166.039062 159.714844 166.097656 C 160.46875 167.074219 161.199219 168.074219 161.878906 169.097656 C 163.769531 171.953125 165.804688 174.820312 168.710938 176.734375 C 169.699219 177.382812 171.132812 178.148438 172.394531 177.828125 C 177.246094 181.710938 183.109375 183.738281 188.582031 186.574219 C 188.027344 186.398438 187.46875 186.238281 186.90625 186.09375 C 181.933594 184.820312 177 185.066406 172.152344 186.683594 C 171.105469 187.035156 170.070312 187.410156 169.042969 187.816406 C 168.921875 187.863281 168.128906 188.082031 168.140625 188.246094 C 168.15625 188.480469 169.292969 188.796875 169.46875 188.867188 C 170.976562 189.457031 172.507812 189.996094 174.015625 190.582031 C 178.863281 192.460938 184.078125 192.347656 189.066406 191.171875 C 190.316406 190.875 192.5 190.523438 193.585938 189.570312 C 198.125 192.753906 201.796875 196.820312 204.785156 201.460938 C 204.242188 200.957031 203.6875 200.464844 203.121094 199.980469 C 200.746094 197.949219 197.523438 195.382812 194.234375 194.863281 C 194.234375 194.644531 194.195312 194.417969 194.113281 194.195312 C 193.746094 193.207031 192.648438 192.703125 191.660156 193.070312 C 190.675781 193.4375 190.171875 194.539062 190.539062 195.527344 C 190.90625 196.511719 192.003906 197.015625 192.992188 196.648438 C 193.320312 196.527344 193.59375 196.324219 193.800781 196.070312 C 196.953125 196.4375 200.03125 198.988281 202.308594 200.933594 C 202.613281 201.195312 202.917969 201.460938 203.21875 201.726562 C 199.917969 199.546875 196.152344 197.886719 192.207031 197.449219 C 191.671875 197.386719 188.539062 196.851562 188.164062 197.550781 C 188.066406 197.730469 188.972656 198.292969 189.085938 198.386719 C 190.164062 199.242188 191.15625 200.21875 192.125 201.195312 C 195.472656 204.578125 199.132812 206.632812 203.917969 207.367188 C 205.300781 207.582031 206.757812 207.175781 208.109375 207.347656 C 209.363281 209.792969 210.558594 212.265625 211.796875 214.714844 C 211.449219 214.527344 211.101562 214.347656 210.75 214.164062 C 208.648438 213.082031 206.453125 212.28125 204.113281 211.921875 C 204.058594 211.910156 204 211.910156 203.949219 211.917969 C 203.933594 211.855469 203.914062 211.796875 203.890625 211.734375 C 203.523438 210.75 202.425781 210.246094 201.4375 210.613281 C 200.449219 210.980469 199.945312 212.078125 200.3125 213.066406 C 200.679688 214.054688 201.78125 214.554688 202.765625 214.1875 C 203.277344 214 203.660156 213.613281 203.859375 213.144531 C 203.878906 213.152344 203.902344 213.15625 203.921875 213.160156 C 206.128906 213.5 208.195312 214.257812 210.175781 215.277344 C 210.867188 215.636719 211.554688 216 212.230469 216.378906 C 212.332031 216.4375 212.4375 216.574219 212.546875 216.6875 C 212.699219 216.839844 212.855469 216.972656 212.984375 217.042969 L 213.003906 217.054688 C 214.226562 219.375 215.523438 221.65625 216.988281 223.855469 C 217.902344 225.234375 218.910156 226.550781 219.914062 227.863281 C 220.09375 228.097656 220.394531 228.636719 220.71875 228.96875 C 220.953125 229.210938 221.210938 229.363281 221.453125 229.410156 C 221.792969 229.476562 222.121094 229.25 222.1875 228.910156 C 222.25 228.582031 222.042969 228.265625 221.722656 228.1875 C 221.691406 228.160156 221.511719 227.980469 221.417969 227.855469 C 221.214844 227.574219 221.035156 227.265625 220.910156 227.101562 C 219.921875 225.808594 218.929688 224.515625 218.03125 223.164062 C 216.738281 221.222656 215.578125 219.214844 214.484375 217.175781 C 214.535156 216.726562 214.609375 216.25 214.617188 216.210938 C 214.96875 214.226562 215.722656 212.253906 216.546875 210.425781 C 218.480469 206.128906 218.949219 202.179688 216.824219 197.835938 C 216.5 197.175781 215.433594 194.613281 214.550781 194.421875 C 214.492188 194.410156 214.351562 195.566406 214.339844 195.644531 C 214.089844 197.050781 213.863281 198.457031 213.667969 199.871094 C 213.222656 203.109375 212.929688 206.324219 212.679688 209.578125 C 212.578125 210.886719 212.441406 212.105469 212.492188 213.316406 C 211.054688 210.449219 209.664062 207.554688 208.148438 204.722656 C 206.5 201.628906 204.601562 198.726562 202.414062 196.085938 C 202.621094 195.773438 203.039062 195.292969 203.15625 195.070312 C 203.695312 194.023438 204.101562 192.910156 204.40625 191.769531 C 205.707031 186.929688 204.832031 181.714844 202.636719 177.273438 C 201.921875 175.824219 201.136719 174.398438 200.214844 173.074219 C 200.089844 172.890625 199.546875 171.960938 199.214844 172.070312 C 199.050781 172.125 199.328125 173.339844 199.339844 173.472656 C 199.503906 174.949219 199.386719 176.417969 199.363281 177.894531 C 199.289062 182.539062 199.316406 187.359375 200.304688 191.945312 C 199.867188 191.226562 199.4375 190.503906 199.023438 189.769531 C 197.140625 186.429688 195.46875 183.121094 194.878906 179.308594 C 194.878906 179.296875 194.875 179.285156 194.871094 179.273438 C 195.710938 178.832031 196.113281 177.828125 195.773438 176.917969 C 195.40625 175.929688 194.308594 175.425781 193.320312 175.792969 C 192.332031 176.160156 191.832031 177.261719 192.199219 178.25 C 192.441406 178.898438 193 179.339844 193.636719 179.460938 C 193.636719 179.472656 193.636719 179.484375 193.640625 179.5 C 194.253906 183.464844 195.976562 186.914062 197.933594 190.386719 C 198.367188 191.160156 198.824219 191.921875 199.285156 192.679688 C 197.132812 190.582031 194.746094 188.707031 192.097656 187.101562 C 190.023438 185.84375 187.847656 184.789062 185.65625 183.769531 C 185.558594 183.640625 185.289062 183.359375 185.210938 183.207031 C 184.964844 182.71875 184.742188 182.207031 184.558594 181.691406 C 184.039062 180.214844 183.738281 178.671875 183.445312 177.136719 C 182.496094 172.109375 181.230469 167.929688 177.816406 163.945312 C 177.046875 163.046875 176.226562 162.171875 175.308594 161.421875 C 175.199219 161.328125 174.539062 160.695312 174.363281 160.761719 C 174.285156 160.789062 174.65625 162.183594 174.671875 162.277344 C 174.984375 163.90625 175.1875 165.558594 175.414062 167.199219 C 175.9375 170.984375 177.664062 174.082031 179.554688 177.339844 C 180.089844 178.261719 180.578125 179.125 181.078125 179.9375 C 180.34375 179.304688 179.628906 178.652344 178.945312 177.964844 C 176.121094 175.109375 173.613281 171.992188 171.789062 168.410156 C 172.300781 167.898438 172.5 167.113281 172.230469 166.390625 C 171.863281 165.402344 170.765625 164.898438 169.777344 165.265625 C 168.792969 165.632812 168.289062 166.734375 168.65625 167.71875 C 168.964844 168.558594 169.808594 169.046875 170.65625 168.953125 C 172.542969 172.660156 175.132812 175.894531 178.054688 178.847656 C 179.058594 179.859375 180.132812 180.796875 181.230469 181.703125 C 178.070312 180.171875 175.003906 178.484375 172.304688 176.121094 Z M 172.304688 176.121094 " fill-opacity="1" fill-rule="evenodd"/><g clip-path="url(#925c6ffde2)"><path fill="#f4ead2" d="M 229.042969 206.417969 L 210.757812 224.703125 C 211.089844 226.535156 211.253906 228.492188 211.253906 230.574219 C 211.253906 237.964844 208.574219 243.90625 203.210938 248.398438 C 197.847656 252.898438 191.46875 255.140625 184.078125 255.140625 C 182.773438 255.140625 181.035156 254.921875 178.859375 254.492188 C 176.539062 254.050781 174.582031 253.621094 172.988281 253.183594 C 158.929688 248.398438 147.988281 236.078125 140.160156 216.222656 L 135.59375 216.222656 L 141.898438 262.53125 L 146.683594 262.53125 C 146.683594 257.609375 148.785156 255.140625 152.988281 255.140625 L 159.726562 256.445312 L 167.117188 258.839844 L 177.988281 261.664062 C 180.164062 262.242188 183.136719 262.53125 186.902344 262.53125 C 195.308594 262.53125 202.773438 260.9375 209.296875 257.75 C 216.253906 254.558594 221.980469 250 226.472656 244.050781 C 230.964844 238.109375 233.210938 231.222656 233.210938 223.394531 C 233.210938 217.460938 231.824219 211.800781 229.042969 206.417969 Z M 149.742188 172.863281 L 166.273438 156.328125 C 165.421875 155.265625 164.617188 154.144531 163.859375 152.957031 C 161.394531 149.1875 160.160156 145.203125 160.160156 141 C 160.160156 136.214844 162.261719 131.722656 166.464844 127.519531 C 170.089844 123.460938 175.378906 121.433594 182.339844 121.433594 C 188.714844 121.433594 194.875 123.097656 200.816406 126.433594 C 206.617188 130.199219 211.328125 134.839844 214.949219 140.347656 C 218.429688 145.855469 220.964844 152.015625 222.558594 158.828125 L 228.210938 158.828125 L 223.429688 112.519531 L 218.863281 112.519531 C 218.285156 116.867188 215.890625 119.257812 211.6875 119.691406 C 207.339844 119.113281 204.078125 118.316406 201.90625 117.300781 C 194.078125 114.113281 187.121094 112.519531 181.035156 112.519531 C 172.917969 112.519531 165.960938 114.113281 160.160156 117.300781 C 153.929688 120.636719 149.21875 125.199219 146.03125 131 C 142.695312 136.941406 141.03125 143.101562 141.03125 149.476562 C 141.609375 157.160156 143.492188 163.539062 146.683594 168.613281 C 147.464844 169.984375 148.488281 171.398438 149.742188 172.863281 Z M 149.742188 172.863281 " fill-opacity="1" fill-rule="nonzero"/></g><g clip-path="url(#963d395e49)"><path fill="#d64700" d="M 272.519531 194.570312 L 272.519531 200.53125 L 245.515625 187.988281 L 245.515625 183.148438 L 272.519531 170.601562 L 272.519531 176.566406 L 252.097656 185.511719 L 252.097656 185.625 Z M 288.558594 163.976562 L 243.394531 163.976562 C 241.265625 163.976562 239.535156 165.703125 239.535156 167.835938 L 239.535156 203.300781 C 239.535156 205.429688 241.265625 207.160156 243.394531 207.160156 L 276.019531 207.160156 L 288.558594 163.976562 " fill-opacity="1" fill-rule="nonzero"/></g><g clip-path="url(#694f406349)"><path fill="#f4ead2" d="M 331.527344 165.511719 L 304.523438 177.886719 L 304.523438 171.921875 L 325.394531 162.976562 L 325.394531 162.867188 L 304.523438 153.917969 L 304.523438 147.957031 L 331.527344 160.332031 Z M 301.09375 141.328125 L 288.558594 184.511719 L 333.644531 184.511719 C 335.777344 184.511719 337.507812 182.785156 337.507812 180.652344 L 337.507812 145.191406 C 337.507812 143.058594 335.777344 141.328125 333.644531 141.328125 L 301.09375 141.328125 " fill-opacity="1" fill-rule="nonzero"/></g></svg>