<svg xmlns="http://www.w3.org/2000/svg" xmlns:xlink="http://www.w3.org/1999/xlink" width="500" zoomAndPan="magnify" viewBox="0 0 375 374.999991" height="500" preserveAspectRatio="xMidYMid meet" version="1.0"><defs><clipPath id="411f2b99e1"><path d="M 57.746094 37.5 L 243 37.5 L 243 321 L 57.746094 321 Z M 57.746094 37.5 " clip-rule="nonzero"/></clipPath><clipPath id="d297cfeab9"><path d="M 239.53125 163 L 289 163 L 289 207.308594 L 239.53125 207.308594 Z M 239.53125 163 " clip-rule="nonzero"/></clipPath><clipPath id="71cb717134"><path d="M 288 141.308594 L 337.78125 141.308594 L 337.78125 185 L 288 185 Z M 288 141.308594 " clip-rule="nonzero"/></clipPath></defs><rect x="-37.5" width="450" fill="#ffffff" y="-37.499999" height="449.999989" fill-opacity="1"/><rect x="-37.5" width="450" fill="#222222" y="-37.499999" height="449.999989" fill-opacity="1"/><path fill="#f4ead2" d="M 127.28125 157.601562 C 127.109375 157.019531 126.960938 156.394531 126.90625 156.253906 C 126.089844 154.117188 124.941406 152.078125 123.570312 150.246094 C 119.820312 145.238281 114.933594 141.957031 109.203125 139.570312 C 107.476562 138.851562 105.722656 138.203125 103.980469 137.523438 C 103.769531 137.441406 102.605469 136.820312 102.386719 137.015625 C 102.226562 137.160156 103.421875 138.570312 103.515625 138.6875 C 104.933594 140.523438 106.3125 142.414062 107.59375 144.347656 C 111.167969 149.734375 115.007812 155.152344 120.492188 158.757812 C 122.359375 159.984375 125.066406 161.433594 127.449219 160.828125 C 136.609375 168.152344 147.675781 171.984375 158.007812 177.339844 C 156.964844 177.007812 155.910156 176.703125 154.847656 176.429688 C 145.460938 174.027344 136.140625 174.492188 126.992188 177.546875 C 125.011719 178.207031 123.058594 178.917969 121.117188 179.683594 C 120.898438 179.769531 119.398438 180.1875 119.417969 180.492188 C 119.449219 180.9375 121.597656 181.539062 121.929688 181.667969 C 124.777344 182.78125 127.660156 183.796875 130.511719 184.902344 C 139.65625 188.453125 149.503906 188.238281 158.921875 186.015625 C 161.277344 185.460938 165.40625 184.792969 167.453125 182.992188 C 176.023438 189.007812 182.957031 196.675781 188.601562 205.441406 C 187.570312 204.488281 186.519531 203.558594 185.457031 202.648438 C 180.96875 198.816406 174.886719 193.964844 168.679688 192.988281 C 168.679688 192.570312 168.609375 192.140625 168.453125 191.726562 C 167.761719 189.863281 165.683594 188.910156 163.820312 189.605469 C 161.957031 190.296875 161.007812 192.375 161.699219 194.238281 C 162.394531 196.101562 164.46875 197.050781 166.332031 196.359375 C 166.953125 196.128906 167.472656 195.742188 167.863281 195.265625 C 173.816406 195.960938 179.617188 200.773438 183.917969 204.449219 C 184.496094 204.941406 185.070312 205.441406 185.636719 205.945312 C 179.410156 201.828125 172.300781 198.695312 164.855469 197.867188 C 163.839844 197.753906 157.929688 196.742188 157.21875 198.058594 C 157.03125 198.398438 158.742188 199.464844 158.957031 199.636719 C 160.996094 201.253906 162.871094 203.09375 164.699219 204.941406 C 171.015625 211.324219 177.925781 215.203125 186.960938 216.59375 C 189.566406 216.996094 192.324219 216.234375 194.871094 216.554688 C 197.238281 221.171875 199.492188 225.839844 201.832031 230.464844 C 201.179688 230.113281 200.519531 229.765625 199.859375 229.425781 C 195.890625 227.378906 191.746094 225.867188 187.328125 225.1875 C 187.222656 225.171875 187.117188 225.167969 187.015625 225.179688 C 186.984375 225.066406 186.949219 224.953125 186.90625 224.835938 C 186.214844 222.972656 184.140625 222.023438 182.277344 222.714844 C 180.414062 223.410156 179.460938 225.484375 180.15625 227.347656 C 180.847656 229.214844 182.921875 230.164062 184.785156 229.46875 C 185.753906 229.109375 186.472656 228.378906 186.847656 227.5 C 186.886719 227.511719 186.925781 227.519531 186.96875 227.523438 C 191.132812 228.164062 195.035156 229.597656 198.773438 231.527344 C 200.078125 232.203125 201.371094 232.890625 202.652344 233.605469 C 202.84375 233.710938 203.042969 233.972656 203.25 234.183594 C 203.539062 234.476562 203.828125 234.726562 204.074219 234.859375 L 204.109375 234.878906 C 206.421875 239.257812 208.867188 243.566406 211.628906 247.71875 C 213.359375 250.316406 215.261719 252.804688 217.15625 255.285156 C 217.5 255.730469 218.0625 256.742188 218.671875 257.375 C 219.117188 257.828125 219.605469 258.117188 220.066406 258.203125 C 220.707031 258.328125 221.328125 257.90625 221.449219 257.265625 C 221.566406 256.644531 221.175781 256.042969 220.570312 255.894531 C 220.515625 255.84375 220.171875 255.507812 219.996094 255.269531 C 219.609375 254.738281 219.269531 254.152344 219.039062 253.847656 C 217.175781 251.410156 215.300781 248.964844 213.601562 246.410156 C 211.164062 242.746094 208.972656 238.960938 206.910156 235.109375 C 207 234.261719 207.144531 233.359375 207.15625 233.285156 C 207.824219 229.542969 209.242188 225.816406 210.796875 222.363281 C 214.453125 214.253906 215.335938 206.796875 211.324219 198.601562 C 210.710938 197.351562 208.699219 192.511719 207.035156 192.15625 C 206.917969 192.132812 206.660156 194.3125 206.632812 194.460938 C 206.164062 197.117188 205.734375 199.769531 205.367188 202.441406 C 204.523438 208.554688 203.972656 214.621094 203.496094 220.765625 C 203.308594 223.238281 203.046875 225.539062 203.148438 227.824219 C 200.433594 222.414062 197.808594 216.949219 194.949219 211.597656 C 191.832031 205.757812 188.246094 200.28125 184.125 195.296875 C 184.507812 194.703125 185.304688 193.796875 185.519531 193.378906 C 186.539062 191.398438 187.308594 189.296875 187.882812 187.144531 C 190.335938 178.011719 188.683594 168.167969 184.542969 159.78125 C 183.195312 157.046875 181.707031 154.351562 179.96875 151.847656 C 179.730469 151.507812 178.707031 149.753906 178.078125 149.957031 C 177.769531 150.058594 178.292969 152.355469 178.320312 152.609375 C 178.628906 155.390625 178.40625 158.167969 178.363281 160.957031 C 178.222656 169.722656 178.269531 178.820312 180.136719 187.480469 C 179.316406 186.121094 178.5 184.753906 177.722656 183.371094 C 174.167969 177.070312 171.007812 170.816406 169.898438 163.621094 C 169.894531 163.597656 169.890625 163.578125 169.882812 163.554688 C 171.46875 162.726562 172.226562 160.828125 171.585938 159.109375 C 170.894531 157.246094 168.816406 156.296875 166.953125 156.988281 C 165.089844 157.679688 164.140625 159.757812 164.835938 161.621094 C 165.289062 162.847656 166.347656 163.679688 167.550781 163.90625 C 167.550781 163.929688 167.554688 163.957031 167.558594 163.980469 C 168.714844 171.464844 171.964844 177.980469 175.660156 184.53125 C 176.484375 185.992188 177.34375 187.433594 178.210938 188.867188 C 174.148438 184.902344 169.644531 181.363281 164.644531 178.335938 C 160.726562 175.960938 156.621094 173.96875 152.488281 172.042969 C 152.300781 171.804688 151.789062 171.269531 151.644531 170.984375 C 151.179688 170.058594 150.761719 169.097656 150.414062 168.117188 C 149.433594 165.335938 148.859375 162.417969 148.3125 159.519531 C 146.519531 150.027344 144.132812 142.140625 137.6875 134.617188 C 136.234375 132.917969 134.683594 131.269531 132.953125 129.855469 C 132.742188 129.683594 131.5 128.480469 131.164062 128.605469 C 131.019531 128.660156 131.714844 131.292969 131.75 131.472656 C 132.335938 134.542969 132.722656 137.664062 133.152344 140.761719 C 134.140625 147.910156 137.394531 153.757812 140.96875 159.90625 C 141.980469 161.644531 142.898438 163.273438 143.839844 164.804688 C 142.453125 163.617188 141.101562 162.386719 139.816406 161.085938 C 134.484375 155.699219 129.75 149.808594 126.304688 143.046875 C 127.273438 142.078125 127.648438 140.597656 127.140625 139.234375 C 126.449219 137.371094 124.375 136.421875 122.511719 137.113281 C 120.648438 137.804688 119.695312 139.882812 120.390625 141.746094 C 120.976562 143.328125 122.5625 144.253906 124.171875 144.070312 C 127.726562 151.074219 132.617188 157.175781 138.136719 162.75 C 140.03125 164.664062 142.054688 166.433594 144.132812 168.140625 C 138.160156 165.253906 132.371094 162.066406 127.28125 157.601562 Z M 127.28125 157.601562 " fill-opacity="1" fill-rule="evenodd"/><g clip-path="url(#411f2b99e1)"><path fill="#f4ead2" d="M 234.390625 214.800781 L 199.871094 249.316406 C 200.496094 252.777344 200.808594 256.46875 200.808594 260.402344 C 200.808594 274.355469 195.746094 285.570312 185.621094 294.050781 C 175.5 302.542969 163.457031 306.777344 149.503906 306.777344 C 147.042969 306.777344 143.757812 306.363281 139.652344 305.550781 C 135.277344 304.726562 131.582031 303.914062 128.570312 303.085938 C 102.03125 294.050781 81.371094 270.792969 66.597656 233.3125 L 57.976562 233.3125 L 69.878906 320.730469 L 78.910156 320.730469 C 78.910156 311.4375 82.875 306.777344 90.8125 306.777344 L 103.535156 309.242188 L 117.488281 313.761719 L 138.011719 319.089844 C 142.117188 320.1875 147.726562 320.730469 154.839844 320.730469 C 170.710938 320.730469 184.800781 317.722656 197.113281 311.707031 C 210.25 305.679688 221.054688 297.070312 229.539062 285.84375 C 238.019531 274.625 242.261719 261.628906 242.261719 246.851562 C 242.261719 235.648438 239.640625 224.960938 234.390625 214.800781 Z M 84.683594 151.453125 L 115.894531 120.242188 C 114.285156 118.234375 112.765625 116.113281 111.332031 113.875 C 106.683594 106.761719 104.355469 99.238281 104.355469 91.300781 C 104.355469 82.273438 108.324219 73.789062 116.257812 65.855469 C 123.097656 58.191406 133.085938 54.363281 146.21875 54.363281 C 158.261719 54.363281 169.890625 57.507812 181.109375 63.800781 C 192.050781 70.917969 200.945312 79.671875 207.785156 90.070312 C 214.351562 100.46875 219.140625 112.097656 222.152344 124.960938 L 232.824219 124.960938 L 223.792969 37.535156 L 215.171875 37.535156 C 214.078125 45.742188 209.5625 50.257812 201.628906 51.078125 C 193.421875 49.984375 187.265625 48.480469 183.160156 46.5625 C 168.382812 40.542969 155.25 37.535156 143.757812 37.535156 C 128.433594 37.535156 115.300781 40.542969 104.355469 46.5625 C 92.589844 52.855469 83.699219 61.476562 77.679688 72.421875 C 71.382812 83.640625 68.238281 95.269531 68.238281 107.308594 C 69.332031 121.808594 72.890625 133.851562 78.910156 143.429688 C 80.390625 146.023438 82.316406 148.6875 84.683594 151.453125 Z M 84.683594 151.453125 " fill-opacity="1" fill-rule="nonzero"/></g><g clip-path="url(#d297cfeab9)"><path fill="#d64700" d="M 272.519531 194.570312 L 272.519531 200.53125 L 245.515625 187.988281 L 245.515625 183.148438 L 272.519531 170.601562 L 272.519531 176.566406 L 252.097656 185.511719 L 252.097656 185.625 Z M 288.558594 163.976562 L 243.394531 163.976562 C 241.265625 163.976562 239.535156 165.703125 239.535156 167.835938 L 239.535156 203.300781 C 239.535156 205.429688 241.265625 207.160156 243.394531 207.160156 L 276.019531 207.160156 L 288.558594 163.976562 " fill-opacity="1" fill-rule="nonzero"/></g><g clip-path="url(#71cb717134)"><path fill="#f4ead2" d="M 331.527344 165.511719 L 304.523438 177.886719 L 304.523438 171.921875 L 325.394531 162.976562 L 325.394531 162.867188 L 304.523438 153.917969 L 304.523438 147.957031 L 331.527344 160.332031 Z M 301.09375 141.328125 L 288.558594 184.511719 L 333.644531 184.511719 C 335.777344 184.511719 337.507812 182.785156 337.507812 180.652344 L 337.507812 145.191406 C 337.507812 143.058594 335.777344 141.328125 333.644531 141.328125 L 301.09375 141.328125 " fill-opacity="1" fill-rule="nonzero"/></g></svg>