<svg xmlns="http://www.w3.org/2000/svg" xmlns:xlink="http://www.w3.org/1999/xlink" width="500" zoomAndPan="magnify" viewBox="0 0 375 374.999991" height="500" preserveAspectRatio="xMidYMid meet" version="1.0"><defs><clipPath id="dea938ebe3"><path d="M 63.175781 37.5 L 248 37.5 L 248 319.5 L 63.175781 319.5 Z M 63.175781 37.5 " clip-rule="nonzero"/></clipPath><clipPath id="4e7fcb12f1"><path d="M 239.53125 166 L 289 166 L 289 209.972656 L 239.53125 209.972656 Z M 239.53125 166 " clip-rule="nonzero"/></clipPath><clipPath id="e908ad2d20"><path d="M 288 143.972656 L 337.78125 143.972656 L 337.78125 188 L 288 188 Z M 288 143.972656 " clip-rule="nonzero"/></clipPath></defs><rect x="-37.5" width="450" fill="#ffffff" y="-37.499999" height="449.999989" fill-opacity="1"/><rect x="-37.5" width="450" fill="#f4ead2" y="-37.499999" height="449.999989" fill-opacity="1"/><path fill="#000000" d="M 132.46875 157.105469 C 132.300781 156.523438 132.152344 155.902344 132.097656 155.765625 C 131.285156 153.632812 130.140625 151.605469 128.773438 149.78125 C 125.035156 144.792969 120.167969 141.523438 114.457031 139.148438 C 112.738281 138.433594 110.988281 137.785156 109.253906 137.109375 C 109.042969 137.027344 107.882812 136.410156 107.664062 136.605469 C 107.503906 136.75 108.699219 138.152344 108.789062 138.265625 C 110.203125 140.097656 111.578125 141.976562 112.855469 143.90625 C 116.414062 149.269531 120.238281 154.664062 125.707031 158.257812 C 127.566406 159.476562 130.265625 160.921875 132.636719 160.316406 C 141.765625 167.613281 152.789062 171.429688 163.089844 176.761719 C 162.046875 176.429688 160.996094 176.128906 159.9375 175.855469 C 150.585938 173.460938 141.296875 173.925781 132.183594 176.964844 C 130.210938 177.625 128.265625 178.332031 126.332031 179.09375 C 126.109375 179.179688 124.613281 179.597656 124.636719 179.898438 C 124.667969 180.34375 126.804688 180.941406 127.136719 181.070312 C 129.972656 182.179688 132.847656 183.191406 135.6875 184.292969 C 144.804688 187.828125 154.613281 187.613281 163.996094 185.402344 C 166.347656 184.847656 170.457031 184.183594 172.496094 182.390625 C 181.035156 188.378906 187.949219 196.019531 193.570312 204.746094 C 192.542969 203.796875 191.5 202.871094 190.4375 201.964844 C 185.964844 198.148438 179.90625 193.316406 173.722656 192.347656 C 173.722656 191.929688 173.648438 191.503906 173.496094 191.085938 C 172.804688 189.230469 170.738281 188.285156 168.878906 188.976562 C 167.023438 189.664062 166.078125 191.730469 166.765625 193.589844 C 167.457031 195.445312 169.527344 196.390625 171.382812 195.699219 C 172 195.46875 172.519531 195.089844 172.90625 194.609375 C 178.835938 195.304688 184.621094 200.097656 188.90625 203.757812 C 189.480469 204.25 190.050781 204.746094 190.617188 205.25 C 184.414062 201.148438 177.328125 198.027344 169.910156 197.203125 C 168.898438 197.089844 163.007812 196.082031 162.300781 197.394531 C 162.117188 197.734375 163.820312 198.792969 164.035156 198.964844 C 166.066406 200.574219 167.933594 202.410156 169.753906 204.25 C 176.050781 210.605469 182.933594 214.464844 191.933594 215.851562 C 194.535156 216.253906 197.28125 215.492188 199.820312 215.816406 C 202.179688 220.414062 204.425781 225.0625 206.757812 229.664062 C 206.101562 229.316406 205.445312 228.972656 204.789062 228.632812 C 200.835938 226.59375 196.703125 225.085938 192.304688 224.410156 C 192.199219 224.394531 192.09375 224.394531 191.992188 224.402344 C 191.960938 224.289062 191.925781 224.175781 191.882812 224.0625 C 191.195312 222.207031 189.125 221.261719 187.269531 221.949219 C 185.410156 222.640625 184.464844 224.707031 185.15625 226.5625 C 185.847656 228.417969 187.914062 229.363281 189.769531 228.675781 C 190.730469 228.316406 191.449219 227.589844 191.820312 226.714844 C 191.863281 226.722656 191.902344 226.730469 191.945312 226.738281 C 196.09375 227.375 199.984375 228.804688 203.707031 230.726562 C 205.003906 231.394531 206.296875 232.082031 207.574219 232.792969 C 207.761719 232.898438 207.960938 233.160156 208.167969 233.371094 C 208.457031 233.660156 208.746094 233.910156 208.992188 234.042969 L 209.023438 234.058594 C 211.328125 238.425781 213.765625 242.714844 216.519531 246.847656 C 218.242188 249.4375 220.136719 251.914062 222.023438 254.382812 C 222.363281 254.828125 222.925781 255.835938 223.535156 256.464844 C 223.976562 256.917969 224.464844 257.203125 224.921875 257.292969 C 225.5625 257.414062 226.179688 256.992188 226.300781 256.355469 C 226.417969 255.738281 226.03125 255.136719 225.425781 254.992188 C 225.371094 254.9375 225.027344 254.605469 224.855469 254.367188 C 224.46875 253.839844 224.128906 253.257812 223.898438 252.953125 C 222.042969 250.523438 220.175781 248.089844 218.480469 245.542969 C 216.054688 241.898438 213.871094 238.125 211.8125 234.292969 C 211.902344 233.445312 212.046875 232.550781 212.0625 232.472656 C 212.722656 228.746094 214.140625 225.035156 215.6875 221.601562 C 219.332031 213.523438 220.210938 206.097656 216.214844 197.933594 C 215.605469 196.691406 213.597656 191.871094 211.9375 191.515625 C 211.824219 191.492188 211.5625 193.664062 211.539062 193.8125 C 211.070312 196.457031 210.644531 199.097656 210.277344 201.757812 C 209.4375 207.84375 208.886719 213.890625 208.414062 220.007812 C 208.226562 222.46875 207.964844 224.757812 208.066406 227.035156 C 205.359375 221.648438 202.746094 216.207031 199.898438 210.878906 C 196.789062 205.0625 193.21875 199.605469 189.109375 194.640625 C 189.492188 194.054688 190.285156 193.148438 190.5 192.734375 C 191.519531 190.761719 192.28125 188.667969 192.855469 186.527344 C 195.300781 177.429688 193.652344 167.628906 189.527344 159.273438 C 188.183594 156.550781 186.703125 153.867188 184.96875 151.375 C 184.730469 151.035156 183.710938 149.289062 183.085938 149.492188 C 182.777344 149.59375 183.300781 151.878906 183.328125 152.132812 C 183.636719 154.902344 183.414062 157.667969 183.367188 160.445312 C 183.230469 169.175781 183.277344 178.234375 185.136719 186.859375 C 184.316406 185.503906 183.507812 184.144531 182.730469 182.765625 C 179.191406 176.492188 176.039062 170.265625 174.933594 163.097656 C 174.929688 163.078125 174.925781 163.054688 174.921875 163.03125 C 176.5 162.207031 177.253906 160.316406 176.617188 158.605469 C 175.925781 156.75 173.859375 155.804688 172 156.492188 C 170.144531 157.183594 169.199219 159.25 169.890625 161.105469 C 170.34375 162.328125 171.398438 163.15625 172.59375 163.382812 C 172.597656 163.40625 172.597656 163.433594 172.605469 163.457031 C 173.753906 170.910156 176.996094 177.398438 180.675781 183.925781 C 181.496094 185.378906 182.355469 186.8125 183.21875 188.242188 C 179.171875 184.292969 174.683594 180.769531 169.699219 177.75 C 165.796875 175.390625 161.703125 173.40625 157.585938 171.488281 C 157.398438 171.246094 156.890625 170.714844 156.746094 170.433594 C 156.28125 169.511719 155.867188 168.550781 155.523438 167.578125 C 154.542969 164.804688 153.972656 161.898438 153.425781 159.015625 C 151.640625 149.5625 149.261719 141.707031 142.839844 134.214844 C 141.390625 132.523438 139.847656 130.882812 138.121094 129.472656 C 137.910156 129.300781 136.675781 128.105469 136.339844 128.230469 C 136.195312 128.28125 136.890625 130.902344 136.921875 131.082031 C 137.507812 134.144531 137.894531 137.25 138.320312 140.335938 C 139.304688 147.453125 142.546875 153.277344 146.109375 159.402344 C 147.117188 161.132812 148.03125 162.75 148.96875 164.277344 C 147.589844 163.09375 146.242188 161.867188 144.960938 160.574219 C 139.644531 155.207031 134.929688 149.34375 131.496094 142.609375 C 132.464844 141.648438 132.835938 140.171875 132.332031 138.8125 C 131.640625 136.957031 129.574219 136.011719 127.714844 136.699219 C 125.859375 137.390625 124.914062 139.457031 125.601562 141.3125 C 126.191406 142.890625 127.769531 143.8125 129.371094 143.628906 C 132.917969 150.601562 137.785156 156.679688 143.285156 162.230469 C 145.171875 164.136719 147.191406 165.898438 149.261719 167.597656 C 143.3125 164.726562 137.542969 161.550781 132.46875 157.105469 Z M 132.46875 157.105469 " fill-opacity="1" fill-rule="evenodd"/><g clip-path="url(#dea938ebe3)"><path fill="#000000" d="M 239.195312 214.066406 L 204.800781 248.4375 C 205.425781 251.886719 205.734375 255.5625 205.734375 259.480469 C 205.734375 273.375 200.691406 284.542969 190.601562 292.988281 C 180.515625 301.449219 168.519531 305.664062 154.613281 305.664062 C 152.160156 305.664062 148.886719 305.25 144.796875 304.441406 C 140.4375 303.617188 136.753906 302.808594 133.757812 301.988281 C 107.308594 292.988281 86.726562 269.828125 72.003906 232.5 L 63.414062 232.5 L 75.273438 319.554688 L 84.269531 319.554688 C 84.269531 310.304688 88.226562 305.664062 96.132812 305.664062 L 108.808594 308.117188 L 122.714844 312.617188 L 143.164062 317.925781 C 147.253906 319.015625 152.839844 319.554688 159.929688 319.554688 C 175.742188 319.554688 189.785156 316.5625 202.054688 310.574219 C 215.140625 304.570312 225.910156 295.996094 234.363281 284.8125 C 242.816406 273.644531 247.039062 260.703125 247.039062 245.984375 C 247.039062 234.828125 244.425781 224.183594 239.195312 214.066406 Z M 90.027344 150.980469 L 121.125 119.898438 C 119.523438 117.898438 118.007812 115.789062 116.578125 113.558594 C 111.945312 106.472656 109.628906 98.980469 109.628906 91.078125 C 109.628906 82.085938 113.582031 73.640625 121.488281 65.738281 C 128.304688 58.105469 138.253906 54.292969 151.34375 54.292969 C 163.339844 54.292969 174.925781 57.425781 186.105469 63.691406 C 197.011719 70.777344 205.871094 79.496094 212.6875 89.851562 C 219.230469 100.207031 224.003906 111.789062 227 124.597656 L 237.632812 124.597656 L 228.636719 37.535156 L 220.046875 37.535156 C 218.957031 45.707031 214.460938 50.203125 206.554688 51.023438 C 198.375 49.933594 192.238281 48.433594 188.148438 46.527344 C 173.425781 40.53125 160.339844 37.535156 148.886719 37.535156 C 133.621094 37.535156 120.53125 40.53125 109.628906 46.527344 C 97.902344 52.792969 89.042969 61.375 83.042969 72.277344 C 76.773438 83.449219 73.636719 95.03125 73.636719 107.019531 C 74.730469 121.460938 78.273438 133.453125 84.269531 142.992188 C 85.746094 145.574219 87.664062 148.226562 90.027344 150.980469 Z M 90.027344 150.980469 " fill-opacity="1" fill-rule="nonzero"/></g><g clip-path="url(#4e7fcb12f1)"><path fill="#d64700" d="M 272.519531 197.234375 L 272.519531 203.199219 L 245.515625 190.652344 L 245.515625 185.8125 L 272.519531 173.265625 L 272.519531 179.230469 L 252.097656 188.175781 L 252.097656 188.289062 Z M 288.558594 166.640625 L 243.394531 166.640625 C 241.265625 166.640625 239.535156 168.367188 239.535156 170.5 L 239.535156 205.964844 C 239.535156 208.097656 241.265625 209.824219 243.394531 209.824219 L 276.019531 209.824219 L 288.558594 166.640625 " fill-opacity="1" fill-rule="nonzero"/></g><g clip-path="url(#e908ad2d20)"><path fill="#222222" d="M 331.527344 168.175781 L 304.523438 180.550781 L 304.523438 174.585938 L 325.394531 165.644531 L 325.394531 165.53125 L 304.523438 156.582031 L 304.523438 150.621094 L 331.527344 163 Z M 301.09375 143.996094 L 288.558594 187.179688 L 333.644531 187.179688 C 335.777344 187.179688 337.507812 185.449219 337.507812 183.316406 L 337.507812 147.855469 C 337.507812 145.722656 335.777344 143.996094 333.644531 143.996094 L 301.09375 143.996094 " fill-opacity="1" fill-rule="nonzero"/></g></svg>